HIERARCHY
ROOT hip
{
	OFFSET 0.000000 0.000000 0.000000 
	CHANNELS 6 Xposition Yposition Zposition Xrotation Zrotation Yrotation
	JOINT abdomen
	{
		OFFSET 0.000000 3.402643 0.000000 
		CHANNELS 3 Xrotation Zrotation Yrotation
		JOINT chest
		{
			OFFSET 0.000000 8.438565 -0.680529 
			CHANNELS 3 Xrotation Zrotation Yrotation
			JOINT neck
			{
				OFFSET 0.000000 10.207942 -0.272212 
				CHANNELS 3 Xrotation Zrotation Yrotation
				JOINT head
				{
					OFFSET 0.000000 3.130431 0.000000 
					CHANNELS 3 Xrotation Zrotation Yrotation
					End Site
					{
						OFFSET 0.000000 3.130435 0.000000 
					}
				}
			}
			JOINT lCollar
			{
				OFFSET 3.470700 6.669187 -0.816635 
				CHANNELS 3 Yrotation Zrotation Xrotation
				JOINT lShldr
				{
					OFFSET 3.198488 0.000000 0.000000 
					CHANNELS 3 Zrotation Yrotation Xrotation
					JOINT lForeArm
					{
						OFFSET 10.139888 0.000000 0.000000 
						CHANNELS 3 Yrotation Zrotation Xrotation
						JOINT lHand
						{
							OFFSET 8.370511 0.000000 0.000000 
							CHANNELS 3 Zrotation Yrotation Xrotation
							End Site
							{
								OFFSET 4.083176 0.000000 0.000000 
							}
						}
					}
				}
			}
			JOINT rCollar
			{
				OFFSET -3.470700 6.669187 -0.816635 
				CHANNELS 3 Yrotation Zrotation Xrotation
				JOINT rShldr
				{
					OFFSET -3.198488 0.000000 0.000000 
					CHANNELS 3 Zrotation Yrotation Xrotation
					JOINT rForeArm
					{
						OFFSET -10.139888 0.000000 0.000000 
						CHANNELS 3 Yrotation Zrotation Xrotation
						JOINT rHand
						{
							OFFSET -8.370511 0.000000 0.000000 
							CHANNELS 3 Zrotation Yrotation Xrotation
							End Site
							{
								OFFSET -4.083176 0.000000 0.000000 
							}
						}
					}
				}
			}
		}
	}
	JOINT lThigh
	{
		OFFSET 5.308129 -1.633274 1.361059 
		CHANNELS 3 Xrotation Zrotation Yrotation
		JOINT lShin
		{
			OFFSET -2.041588 -20.007561 0.000000 
			CHANNELS 3 Xrotation Zrotation Yrotation
			JOINT lFoot
			{
				OFFSET 0.000000 -19.190928 -1.224953 
				CHANNELS 3 Xrotation Yrotation Zrotation
				End Site
				{
					OFFSET 0.000000 -2.449906 4.627600 
				}
			}
		}
	}
	JOINT rThigh
	{
		OFFSET -5.308129 -1.633274 1.361059 
		CHANNELS 3 Xrotation Zrotation Yrotation
		JOINT rShin
		{
			OFFSET 2.041588 -20.007561 0.000000 
			CHANNELS 3 Xrotation Zrotation Yrotation
			JOINT rFoot
			{
				OFFSET 0.000000 -19.190928 -1.224953 
				CHANNELS 3 Xrotation Yrotation Zrotation
				End Site
				{
					OFFSET 0.000000 -2.449906 4.627600 
				}
			}
		}
	}
}
MOTION
Frames: 6
Frame Time: 0.011111
10.021663 58.534027 -11.238562 66.578941 12.444984 -57.739666 -15.241208 19.309963 16.694496 -32.308113 -4.004246 4.515935 -18.706814 8.870664 9.028039 8.299014 10.975141 22.624395 -5.788594 -15.737329 -1.465587 22.872902 0.459570 -11.796203 -43.545300 5.934023 5.654883 8.524705 12.647240 -80.667366 7.611086 14.174596 -1.900835 -39.698215 30.472910 -43.609879 43.208607 -5.836453 5.545811 -8.534408 -12.637552 32.064316 -82.513206 47.537663 -24.693369 26.221844 -5.538499 -4.369933 -68.907684 -12.748613 -11.212909 22.378691 -20.436451 -7.627462 60.943386 2.614898 8.198684 49.696857 -22.171745 17.692833 
10.042148 58.467133 -11.315379 66.976654 11.573223 -57.533348 -14.422194 19.935913 16.630295 -32.060543 -4.346235 4.494347 -19.069851 8.965152 8.964163 7.931705 10.918989 22.554384 -5.788594 -15.737329 -1.465587 22.761263 0.357076 -11.719677 -43.637348 5.964726 5.697107 8.524705 12.647240 -80.179092 7.611086 14.174596 -1.900835 -39.508629 30.187807 -44.672043 43.086544 -5.802149 5.503346 -8.534408 -12.637552 31.107281 -83.710960 47.480461 -26.321898 26.847988 -5.492903 -4.454953 -68.823578 -13.144678 -12.357105 22.660397 -18.961851 -7.728476 60.239552 2.701740 8.143005 48.673687 -21.065208 16.068258 
10.085997 58.384876 -11.428683 67.862282 9.961669 -57.303646 -13.177682 21.561457 16.647062 -32.003056 -4.867616 4.472189 -19.272390 9.112722 8.884076 7.749158 10.655705 22.453964 -5.788594 -15.737329 -1.465587 22.668638 0.243931 -11.670332 -43.586342 5.950313 5.680199 8.524705 12.647240 -79.895882 7.611086 14.174596 -1.900835 -39.399902 30.245472 -46.146542 42.861980 -5.730520 5.420502 -8.534408 -12.637552 30.023294 -85.794075 47.674690 -29.158279 27.479177 -5.470164 -4.535025 -68.614502 -13.180484 -12.401657 23.309700 -16.621372 -7.356341 59.554947 2.765821 8.094664 49.348217 -23.261497 18.913076 
10.075434 58.366955 -11.440207 66.941643 10.420283 -57.446960 -12.967483 20.192030 16.883261 -31.850327 -4.638783 4.543188 -19.117144 8.988807 8.858371 7.427979 10.585304 22.279997 -5.788594 -15.737329 -1.465587 22.561666 -0.191173 -12.539014 -43.238731 5.839357 5.545596 8.524705 12.647240 -80.931038 7.611086 14.174596 -1.900835 -39.361099 30.261156 -46.794582 42.678040 -5.667225 5.346791 -8.534408 -12.637552 29.574078 -84.684471 47.175537 -27.995052 28.152504 -5.427815 -4.624616 -68.618256 -13.335255 -12.818676 22.977306 -17.177179 -8.641441 58.939091 2.848626 8.032454 48.204102 -22.117481 17.191589 
10.037346 58.394798 -11.352828 64.304733 12.829780 -57.918114 -13.673429 16.010996 17.236286 -31.616331 -3.730186 4.672520 -18.907925 8.743431 8.867270 7.103159 10.653778 22.139410 -5.788594 -15.737329 -1.465587 22.443838 -0.655135 -12.969121 -42.972904 5.752147 5.447124 8.524705 12.647240 -81.516983 7.611086 14.174596 -1.900835 -39.384506 30.224218 -47.193218 42.443745 -5.595833 5.273680 -8.534408 -12.637552 29.115095 -80.906097 45.790543 -23.384796 28.802425 -5.402141 -4.706288 -68.890419 -13.357532 -12.878871 21.687412 -20.477921 -11.438866 58.420815 2.906554 7.983241 49.357800 -23.719742 19.484003 
10.030305 58.395760 -11.317619 62.599743 14.037710 -58.307930 -13.723559 13.490345 17.569365 -31.440386 -3.189373 4.765853 -18.787426 8.567526 8.876298 6.809416 10.618432 22.033102 -5.788594 -15.737329 -1.465587 22.304911 -0.942225 -12.464811 -42.983315 5.758111 5.455023 8.524705 12.647240 -80.911514 7.611086 14.174596 -1.900835 -39.434372 30.327686 -48.197769 42.127838 -5.489030 5.151324 -8.534408 -12.637552 28.167826 -78.650711 44.850590 -20.826941 29.353951 -5.368325 -4.766398 -68.943008 -13.387249 -12.978966 20.895988 -22.186079 -13.200558 57.863640 2.964730 7.920882 48.670364 -23.070932 18.462685 
